<mxfile host="Electron" modified="2024-04-03T13:33:08.947Z" agent="Mozilla/5.0 (X11; Linux x86_64) AppleWebKit/537.36 (KHTML, like Gecko) draw.io/24.1.0 Chrome/120.0.6099.109 Electron/28.1.0 Safari/537.36" etag="4iRmmSM52FPn2c9qot5u" version="24.1.0" type="device">
  <diagram name="第 1 页" id="D8UA21lmjITlM3K5Ilyf">
    <mxGraphModel dx="874" dy="515" grid="1" gridSize="10" guides="1" tooltips="1" connect="1" arrows="1" fold="1" page="1" pageScale="1" pageWidth="1169" pageHeight="827" math="0" shadow="0">
      <root>
        <mxCell id="0" />
        <mxCell id="1" parent="0" />
        <mxCell id="FrLd-uzHHq9ew4N8JoH7-1" value="Accelerator" style="rounded=0;whiteSpace=wrap;html=1;points=[[0,0,0,0,0],[0,0.25,0,0,0],[0,0.5,0,0,0],[0,0.75,0,0,0],[0,1,0,0,0],[0.12,0,0,0,0],[0.25,0,0,0,0],[0.25,1,0,0,0],[0.38,0,0,0,0],[0.5,0,0,0,0],[0.5,1,0,0,0],[0.62,0,0,0,0],[0.75,0,0,0,0],[0.75,1,0,0,0],[0.85,0,0,0,0],[0.91,0,0,0,0],[1,0,0,0,0],[1,0.25,0,0,0],[1,0.5,0,0,0],[1,0.75,0,0,0],[1,1,0,0,0]];" vertex="1" parent="1">
          <mxGeometry x="280" y="340" width="240" height="60" as="geometry" />
        </mxCell>
        <mxCell id="FrLd-uzHHq9ew4N8JoH7-2" value="Rocket Core" style="rounded=0;whiteSpace=wrap;html=1;points=[[0,0,0,0,0],[0,0.25,0,0,0],[0,0.5,0,0,0],[0,0.75,0,0,0],[0,1,0,0,0],[0.12,1,0,0,0],[0.25,0,0,0,0],[0.25,1,0,0,0],[0.38,1,0,0,0],[0.5,0,0,0,0],[0.5,1,0,0,0],[0.62,1,0,0,0],[0.75,0,0,0,0],[0.75,1,0,0,0],[0.85,1,0,0,0],[0.91,1,0,0,0],[1,0,0,0,0],[1,0.25,0,0,0],[1,0.5,0,0,0],[1,0.75,0,0,0],[1,1,0,0,0]];" vertex="1" parent="1">
          <mxGeometry x="280" y="210" width="240" height="60" as="geometry" />
        </mxCell>
        <mxCell id="FrLd-uzHHq9ew4N8JoH7-6" style="edgeStyle=orthogonalEdgeStyle;rounded=0;orthogonalLoop=1;jettySize=auto;html=1;exitX=0.12;exitY=1;exitDx=0;exitDy=0;exitPerimeter=0;entryX=0.12;entryY=0;entryDx=0;entryDy=0;entryPerimeter=0;" edge="1" parent="1" source="FrLd-uzHHq9ew4N8JoH7-2" target="FrLd-uzHHq9ew4N8JoH7-1">
          <mxGeometry relative="1" as="geometry" />
        </mxCell>
        <mxCell id="FrLd-uzHHq9ew4N8JoH7-15" value="inst[31:7]" style="edgeLabel;html=1;align=center;verticalAlign=middle;resizable=0;points=[];" vertex="1" connectable="0" parent="FrLd-uzHHq9ew4N8JoH7-6">
          <mxGeometry x="-0.1004" relative="1" as="geometry">
            <mxPoint x="-29" as="offset" />
          </mxGeometry>
        </mxCell>
        <mxCell id="FrLd-uzHHq9ew4N8JoH7-11" style="edgeStyle=orthogonalEdgeStyle;rounded=0;orthogonalLoop=1;jettySize=auto;html=1;exitX=0.38;exitY=1;exitDx=0;exitDy=0;exitPerimeter=0;entryX=0.38;entryY=0;entryDx=0;entryDy=0;entryPerimeter=0;" edge="1" parent="1" source="FrLd-uzHHq9ew4N8JoH7-2" target="FrLd-uzHHq9ew4N8JoH7-1">
          <mxGeometry relative="1" as="geometry" />
        </mxCell>
        <mxCell id="FrLd-uzHHq9ew4N8JoH7-16" value="rs1" style="edgeLabel;html=1;align=center;verticalAlign=middle;resizable=0;points=[];" vertex="1" connectable="0" parent="FrLd-uzHHq9ew4N8JoH7-11">
          <mxGeometry x="-0.0902" relative="1" as="geometry">
            <mxPoint x="-11" as="offset" />
          </mxGeometry>
        </mxCell>
        <mxCell id="FrLd-uzHHq9ew4N8JoH7-12" style="edgeStyle=orthogonalEdgeStyle;rounded=0;orthogonalLoop=1;jettySize=auto;html=1;exitX=0.62;exitY=1;exitDx=0;exitDy=0;exitPerimeter=0;entryX=0.62;entryY=0;entryDx=0;entryDy=0;entryPerimeter=0;" edge="1" parent="1" source="FrLd-uzHHq9ew4N8JoH7-2" target="FrLd-uzHHq9ew4N8JoH7-1">
          <mxGeometry relative="1" as="geometry" />
        </mxCell>
        <mxCell id="FrLd-uzHHq9ew4N8JoH7-17" value="rs2" style="edgeLabel;html=1;align=center;verticalAlign=middle;resizable=0;points=[];" vertex="1" connectable="0" parent="FrLd-uzHHq9ew4N8JoH7-12">
          <mxGeometry x="-0.0902" y="-1" relative="1" as="geometry">
            <mxPoint x="-8" as="offset" />
          </mxGeometry>
        </mxCell>
        <mxCell id="FrLd-uzHHq9ew4N8JoH7-13" style="edgeStyle=orthogonalEdgeStyle;rounded=0;orthogonalLoop=1;jettySize=auto;html=1;exitX=0.85;exitY=1;exitDx=0;exitDy=0;exitPerimeter=0;entryX=0.85;entryY=0;entryDx=0;entryDy=0;entryPerimeter=0;" edge="1" parent="1" source="FrLd-uzHHq9ew4N8JoH7-2" target="FrLd-uzHHq9ew4N8JoH7-1">
          <mxGeometry relative="1" as="geometry" />
        </mxCell>
        <mxCell id="FrLd-uzHHq9ew4N8JoH7-18" value="valid" style="edgeLabel;html=1;align=center;verticalAlign=middle;resizable=0;points=[];" vertex="1" connectable="0" parent="FrLd-uzHHq9ew4N8JoH7-13">
          <mxGeometry x="-0.0351" relative="1" as="geometry">
            <mxPoint x="-14" as="offset" />
          </mxGeometry>
        </mxCell>
        <mxCell id="FrLd-uzHHq9ew4N8JoH7-14" style="edgeStyle=orthogonalEdgeStyle;rounded=0;orthogonalLoop=1;jettySize=auto;html=1;exitX=0.91;exitY=0;exitDx=0;exitDy=0;exitPerimeter=0;entryX=0.91;entryY=1;entryDx=0;entryDy=0;entryPerimeter=0;" edge="1" parent="1" source="FrLd-uzHHq9ew4N8JoH7-1" target="FrLd-uzHHq9ew4N8JoH7-2">
          <mxGeometry relative="1" as="geometry" />
        </mxCell>
        <mxCell id="FrLd-uzHHq9ew4N8JoH7-19" value="ready" style="edgeLabel;html=1;align=center;verticalAlign=middle;resizable=0;points=[];" vertex="1" connectable="0" parent="FrLd-uzHHq9ew4N8JoH7-14">
          <mxGeometry x="0.0024" relative="1" as="geometry">
            <mxPoint x="22" as="offset" />
          </mxGeometry>
        </mxCell>
      </root>
    </mxGraphModel>
  </diagram>
</mxfile>
